<svg width="87" height="16" viewBox="0 0 87 16" fill="none" xmlns="http://www.w3.org/2000/svg">
<path d="M0.679688 15V0.908203H9.68359C10.9206 0.908203 11.959 1.09049 12.7988 1.45508C13.6452 1.81315 14.2865 2.33073 14.7227 3.00781C15.1589 3.67839 15.377 4.48568 15.377 5.42969V5.44922C15.377 6.44531 15.1198 7.30143 14.6055 8.01758C14.0977 8.72721 13.362 9.24154 12.3984 9.56055L15.9043 15H11.666L8.6875 10.1562C8.66146 10.1562 8.63216 10.1562 8.59961 10.1562C8.57357 10.1562 8.54427 10.1562 8.51172 10.1562H4.42969V15H0.679688ZM4.42969 7.63672H9.3418C10.0579 7.63672 10.6146 7.46094 11.0117 7.10938C11.4089 6.7513 11.6074 6.25326 11.6074 5.61523V5.5957C11.6074 4.97721 11.4023 4.48893 10.9922 4.13086C10.5885 3.77279 10.0286 3.59375 9.3125 3.59375H4.42969V7.63672ZM24.909 15.3125C23.3335 15.3125 21.9793 15.1432 20.8465 14.8047C19.7137 14.4661 18.8217 13.9714 18.1707 13.3203C17.5197 12.6693 17.129 11.8815 16.9988 10.957L16.9793 10.8203H20.6121L20.6414 10.9082C20.7326 11.2793 20.9539 11.5951 21.3055 11.8555C21.6635 12.1094 22.1518 12.3047 22.7703 12.4414C23.3888 12.5716 24.1342 12.6367 25.0066 12.6367C25.7293 12.6367 26.351 12.5684 26.8719 12.4316C27.3927 12.2884 27.7898 12.0866 28.0633 11.8262C28.3432 11.5658 28.4832 11.2598 28.4832 10.9082V10.8984C28.4832 10.4557 28.2977 10.1237 27.9266 9.90234C27.5555 9.68099 26.9077 9.51823 25.9832 9.41406L22.4969 9.14062C20.7391 8.96484 19.4337 8.54492 18.5809 7.88086C17.7345 7.21029 17.3113 6.28581 17.3113 5.10742V5.08789C17.3113 4.1569 17.5978 3.35612 18.1707 2.68555C18.7436 2.01497 19.5574 1.50065 20.6121 1.14258C21.6668 0.777995 22.9233 0.595703 24.3816 0.595703C25.866 0.595703 27.1421 0.768229 28.2098 1.11328C29.2775 1.45182 30.1206 1.94336 30.7391 2.58789C31.3576 3.22591 31.7352 3.99414 31.8719 4.89258L31.9012 5.0293H28.2879L28.2586 4.94141C28.1544 4.57682 27.9428 4.27083 27.6238 4.02344C27.3113 3.77604 26.8882 3.59049 26.3543 3.4668C25.8204 3.33659 25.1727 3.27148 24.4109 3.27148C23.6818 3.27148 23.0665 3.33659 22.5652 3.4668C22.0704 3.59049 21.6928 3.77279 21.4324 4.01367C21.1785 4.24805 21.0516 4.53125 21.0516 4.86328V4.87305C21.0516 5.30273 21.2436 5.63151 21.6277 5.85938C22.0118 6.08724 22.6466 6.24674 23.532 6.33789L27.0672 6.62109C28.2456 6.73828 29.2124 6.95964 29.9676 7.28516C30.7293 7.61068 31.2957 8.05013 31.6668 8.60352C32.0379 9.15039 32.2234 9.82096 32.2234 10.6152V10.625C32.2234 11.6016 31.9337 12.4414 31.3543 13.1445C30.7814 13.8411 29.948 14.3783 28.8543 14.7559C27.7671 15.127 26.452 15.3125 24.909 15.3125ZM34.1578 15V0.908203H37.9078V6.41602H46.4918V0.908203H50.2418V15H46.4918V9.28711H37.9078V15H34.1578ZM51.9711 15L58.8461 6.82617L57.9477 9.17969V7.88086L51.9906 0.908203H56.5121L60.5746 5.86914H62.2152L59.8129 7.01172L64.6762 0.908203H69.0805L62.977 7.90039V9.18945L62.059 6.8457L69.0219 15H64.6176L60.4672 10.1367H58.8266L61.2973 9.01367L56.2094 15H51.9711ZM70.8 15V0.908203H74.0227L84.4621 11.6406L81.132 9.91211H82.7629V0.908203H86.3762V15H83.1633L72.7141 4.19922L76.0441 5.9375H74.4035V15H70.8Z" fill="url(#paint0_linear_732_3)"/>
<path d="M0.679688 15V0.908203H9.68359C10.9206 0.908203 11.959 1.09049 12.7988 1.45508C13.6452 1.81315 14.2865 2.33073 14.7227 3.00781C15.1589 3.67839 15.377 4.48568 15.377 5.42969V5.44922C15.377 6.44531 15.1198 7.30143 14.6055 8.01758C14.0977 8.72721 13.362 9.24154 12.3984 9.56055L15.9043 15H11.666L8.6875 10.1562C8.66146 10.1562 8.63216 10.1562 8.59961 10.1562C8.57357 10.1562 8.54427 10.1562 8.51172 10.1562H4.42969V15H0.679688ZM4.42969 7.63672H9.3418C10.0579 7.63672 10.6146 7.46094 11.0117 7.10938C11.4089 6.7513 11.6074 6.25326 11.6074 5.61523V5.5957C11.6074 4.97721 11.4023 4.48893 10.9922 4.13086C10.5885 3.77279 10.0286 3.59375 9.3125 3.59375H4.42969V7.63672ZM24.909 15.3125C23.3335 15.3125 21.9793 15.1432 20.8465 14.8047C19.7137 14.4661 18.8217 13.9714 18.1707 13.3203C17.5197 12.6693 17.129 11.8815 16.9988 10.957L16.9793 10.8203H20.6121L20.6414 10.9082C20.7326 11.2793 20.9539 11.5951 21.3055 11.8555C21.6635 12.1094 22.1518 12.3047 22.7703 12.4414C23.3888 12.5716 24.1342 12.6367 25.0066 12.6367C25.7293 12.6367 26.351 12.5684 26.8719 12.4316C27.3927 12.2884 27.7898 12.0866 28.0633 11.8262C28.3432 11.5658 28.4832 11.2598 28.4832 10.9082V10.8984C28.4832 10.4557 28.2977 10.1237 27.9266 9.90234C27.5555 9.68099 26.9077 9.51823 25.9832 9.41406L22.4969 9.14062C20.7391 8.96484 19.4337 8.54492 18.5809 7.88086C17.7345 7.21029 17.3113 6.28581 17.3113 5.10742V5.08789C17.3113 4.1569 17.5978 3.35612 18.1707 2.68555C18.7436 2.01497 19.5574 1.50065 20.6121 1.14258C21.6668 0.777995 22.9233 0.595703 24.3816 0.595703C25.866 0.595703 27.1421 0.768229 28.2098 1.11328C29.2775 1.45182 30.1206 1.94336 30.7391 2.58789C31.3576 3.22591 31.7352 3.99414 31.8719 4.89258L31.9012 5.0293H28.2879L28.2586 4.94141C28.1544 4.57682 27.9428 4.27083 27.6238 4.02344C27.3113 3.77604 26.8882 3.59049 26.3543 3.4668C25.8204 3.33659 25.1727 3.27148 24.4109 3.27148C23.6818 3.27148 23.0665 3.33659 22.5652 3.4668C22.0704 3.59049 21.6928 3.77279 21.4324 4.01367C21.1785 4.24805 21.0516 4.53125 21.0516 4.86328V4.87305C21.0516 5.30273 21.2436 5.63151 21.6277 5.85938C22.0118 6.08724 22.6466 6.24674 23.532 6.33789L27.0672 6.62109C28.2456 6.73828 29.2124 6.95964 29.9676 7.28516C30.7293 7.61068 31.2957 8.05013 31.6668 8.60352C32.0379 9.15039 32.2234 9.82096 32.2234 10.6152V10.625C32.2234 11.6016 31.9337 12.4414 31.3543 13.1445C30.7814 13.8411 29.948 14.3783 28.8543 14.7559C27.7671 15.127 26.452 15.3125 24.909 15.3125ZM34.1578 15V0.908203H37.9078V6.41602H46.4918V0.908203H50.2418V15H46.4918V9.28711H37.9078V15H34.1578ZM51.9711 15L58.8461 6.82617L57.9477 9.17969V7.88086L51.9906 0.908203H56.5121L60.5746 5.86914H62.2152L59.8129 7.01172L64.6762 0.908203H69.0805L62.977 7.90039V9.18945L62.059 6.8457L69.0219 15H64.6176L60.4672 10.1367H58.8266L61.2973 9.01367L56.2094 15H51.9711ZM70.8 15V0.908203H74.0227L84.4621 11.6406L81.132 9.91211H82.7629V0.908203H86.3762V15H83.1633L72.7141 4.19922L76.0441 5.9375H74.4035V15H70.8Z" fill="white"/>
<defs>
<linearGradient id="paint0_linear_732_3" x1="-1" y1="1.46939" x2="80.8585" y2="32.0374" gradientUnits="userSpaceOnUse">
<stop stop-color="#C0BFAE"/>
<stop offset="0.301253" stop-color="#D28110"/>
<stop offset="0.448734" stop-color="#B31F00"/>
<stop offset="0.744614" stop-color="#D28110"/>
<stop offset="1" stop-color="#C0BFAE"/>
</linearGradient>
</defs>
</svg>
